<mxfile host="app.diagrams.net" modified="2024-04-01T11:00:51.903Z" agent="Mozilla/5.0 (Macintosh; Intel Mac OS X 10_15_7) AppleWebKit/537.36 (KHTML, like Gecko) Chrome/120.0.0.0 Safari/537.36" version="24.2.1" etag="t-N3n4sEX8a101C0Nefg" type="github">
  <diagram name="第 1 页" id="wHKWAx3UkNSvwidnDVWt">
    <mxGraphModel>
      <root>
        <mxCell id="0" />
        <mxCell id="1" parent="0" />
      </root>
    </mxGraphModel>
  </diagram>
</mxfile>
